<svg xmlns="http://www.w3.org/2000/svg" width="28" height="28" viewBox="0 0 28 28"><circle cx="14" cy="14" r="14" fill="#ffa40b" fill-rule="evenodd"/><path fill="#fff" d="m 21.54,7.241 -0.686,-0.729 -1.36,1.283 0,-1.291 -1,0 0,2.234 -0.304,0.287 C 16.942,7.878 15.284,7.171 13.46,7.171 c -3.859,0 -7,3.141 -7,7 0,1.943 0.797,3.702 2.08,4.972 l -1.46,1.703 0.76,0.65 1.463,-1.707 c 1.164,0.864 2.6,1.382 4.157,1.382 1.557,0 2.993,-0.518 4.157,-1.382 l 1.463,1.707 0.76,-0.65 -1.46,-1.703 c 1.283,-1.27 2.08,-3.029 2.08,-4.972 0,-1.312 -0.373,-2.534 -1.004,-3.584 l -0.743,0.699 c 0.474,0.857 0.747,1.839 0.747,2.885 0,3.309 -2.691,6 -6,6 -3.309,0 -6,-2.691 -6,-6 0,-3.309 2.691,-6 6,-6 1.538,0 2.938,0.586 4,1.541 l -0.74,0.699 c -0.878,-0.762 -2.009,-1.24 -3.259,-1.24 -2.757,0 -5,2.243 -5,5 0,2.757 2.243,5 5,5 2.757,0 5,-2.243 5,-5 0,-0.779 -0.197,-1.504 -0.521,-2.158 l -2.499,2.349 c -0.098,1.012 -0.944,1.809 -1.981,1.809 -1.103,0 -2,-0.897 -2,-2 0,-1.103 0.897,-2 2,-2 0.391,0 0.753,0.117 1.062,0.312 l -0.789,0.743 C 13.645,13.2 13.557,13.171 13.46,13.171 c -0.552,0 -1,0.448 -1,1 0,0.552 0.448,1 1,1 0.552,0 1,-0.448 1,-1 0,-0.076 -0.027,-0.143 -0.043,-0.214 l 0.094,-0.088 -0.002,-0.002 2.9,-2.726 C 17.408,11.14 17.408,11.139 17.407,11.138 l 0.742,-0.7 c 10e-4,10e-4 0.002,0.003 0.003,0.004 L 18.884,9.754 C 18.883,9.752 18.882,9.75 18.88,9.748 l 0.259,-0.244 0.01,0 0.009,-0.009 0.008,0.009 2.326,0 0,-1 -1.292,0 1.34,-1.263 z m -8.08,6.931 c 0,-0.001 0,-0.001 0,0 l 0,0 0,0 z"/></svg>