<svg xmlns="http://www.w3.org/2000/svg" width="32" height="32" version="1" viewBox="0 0 32 32"><g transform="matrix(.97984 0 0 .97967 -1021.46 -1633.142)"><path fill="#f55" stroke="#373748" stroke-linecap="round" stroke-linejoin="round" stroke-width="2.041" d="m 1057,653.5 a 13.499997,13.499997 0 0 0 -13.5,13.5 13.499997,13.499997 0 0 0 13.5,13.5 13.499997,13.499997 0 0 0 13.5,-13.5 13.499997,13.499997 0 0 0 -0.074,-1.29688 l 3.6914,-0.98828 -1.2832,-1.95703 0.1328,-2.33593 -3.6953,0.99023 A 13.499997,13.499997 0 0 0 1057,653.5 Z" style="isolation:auto;mix-blend-mode:normal" color="#000" overflow="visible" transform="translate(0 1016.362)"/><g transform="translate(40)"><circle style="isolation:auto;mix-blend-mode:normal" cx="1017" cy="1683.362" r="13.5" fill="#f55" color="#000" overflow="visible"/><circle cx="1017" cy="1683.362" r="10.887" fill="#f2f2f2" color="#000" overflow="visible" style="isolation:auto;mix-blend-mode:normal"/><circle style="isolation:auto;mix-blend-mode:normal" cx="1017" cy="1683.362" r="8.274" fill="#f55" color="#000" overflow="visible"/><circle cx="1017" cy="1683.362" r="5.661" fill="#f2f2f2" color="#000" overflow="visible" style="isolation:auto;mix-blend-mode:normal"/><circle style="isolation:auto;mix-blend-mode:normal" cx="1017" cy="1683.362" r="3.048" fill="#f55" color="#000" overflow="visible"/><circle cx="1017" cy="1683.362" r=".435" fill="#f2f2f2" stroke="#f2f2f2" stroke-linecap="round" stroke-linejoin="round" style="isolation:auto;mix-blend-mode:normal" stroke-width="1.021" color="#000" overflow="visible"/><path fill="#5fd38d" fill-rule="evenodd" stroke="#373748" stroke-linecap="round" stroke-linejoin="round" stroke-width="1.021" d="m 1017.3069,1683.2623 13.5229,-3.6235"/><path fill="#ffd42a" d="m 1028.7231,1677.9204 4.2433,-1.137 -0.1321,2.336 1.2824,1.9569 -4.2433,1.137 -1.2823,-1.957 z" color="#000" overflow="visible" style="isolation:auto;mix-blend-mode:normal"/></g></g></svg>