<svg xmlns="http://www.w3.org/2000/svg" width="32" height="32" version="1" viewBox="0 0 32 32"><g transform="translate(-1045.003 -1667.366)"><circle cx="1061.003" cy="1683.366" r="15.5" fill="#f55" stroke="#373748" stroke-linecap="round" stroke-linejoin="round" color="#000" style="isolation:auto;mix-blend-mode:normal" overflow="visible"/><circle cx="1061.003" cy="1683.366" r="13.5" fill="#5fd38d" stroke="#373748" stroke-linecap="round" stroke-linejoin="round" color="#000" style="isolation:auto;mix-blend-mode:normal" overflow="visible"/><g transform="translate(-74.831 -132.03) scale(1.07971)"><path fill="#f2f2f2" stroke="#373748" stroke-linecap="round" stroke-linejoin="round" stroke-width=".926" d="m -1669.1138,1049.4623 a 12.5,12.5 0 0 1 -0.02,5.0156 l -12.2356,-2.5575 z" color="#000" overflow="visible" transform="rotate(-90)" style="isolation:auto;mix-blend-mode:normal"/><path fill="#f2f2f2" stroke="#373748" stroke-linecap="round" stroke-linejoin="round" stroke-width=".926" d="m 1693.6324,-1054.5001 a 12.5,12.5 0 0 1 -0.02,5.0156 l -12.2355,-2.5575 z" color="#000" overflow="visible" transform="rotate(90)" style="isolation:auto;mix-blend-mode:normal"/><path style="isolation:auto;mix-blend-mode:normal" fill="#f2f2f2" stroke="#373748" stroke-linecap="round" stroke-linejoin="round" stroke-width=".926" d="m 1064.2406,1678.8543 a 12.5,12.5 0 0 1 -0.02,5.0156 l -12.2356,-2.5575 z" color="#000" overflow="visible"/><path fill="#f2f2f2" stroke="#373748" stroke-linecap="round" stroke-linejoin="round" stroke-width=".926" d="m -1039.722,-1683.8919 a 12.5,12.5 0 0 1 -0.02,5.0156 l -12.2356,-2.5575 z" color="#000" overflow="visible" transform="scale(-1)" style="isolation:auto;mix-blend-mode:normal"/><path fill="#f2f2f2" stroke="#373748" stroke-linecap="round" stroke-linejoin="round" stroke-width=".926" d="m -432.78801,1930.2546 a 12.5,12.5 0 0 1 -0.0204,5.0155 l -12.23558,-2.5575 z" color="#000" overflow="visible" transform="rotate(-45)" style="isolation:auto;mix-blend-mode:normal"/><path fill="#f2f2f2" stroke="#373748" stroke-linecap="round" stroke-linejoin="round" stroke-width=".926" d="m 457.30659,-1935.2922 a 12.5,12.5 0 0 1 -0.0204,5.0156 l -12.23557,-2.5575 z" color="#000" overflow="visible" transform="rotate(135)" style="isolation:auto;mix-blend-mode:normal"/><path fill="#f2f2f2" stroke="#373748" stroke-linecap="round" stroke-linejoin="round" stroke-width=".926" d="m 1945.0327,442.52851 a 12.5,12.5 0 0 1 -0.02,5.01555 l -12.2356,-2.55749 z" color="#000" overflow="visible" transform="rotate(45)" style="isolation:auto;mix-blend-mode:normal"/><path fill="#f2f2f2" stroke="#373748" stroke-linecap="round" stroke-linejoin="round" stroke-width=".926" d="m -1920.5141,-447.5661 a 12.5,12.5 0 0 1 -0.02,5.01556 l -12.2356,-2.55749 z" color="#000" overflow="visible" transform="rotate(-135)" style="isolation:auto;mix-blend-mode:normal"/></g><circle cx="1061.003" cy="1683.366" r="9.5" fill="none" stroke="#373748" stroke-linecap="round" stroke-linejoin="round" color="#000" style="isolation:auto;mix-blend-mode:normal" overflow="visible"/></g></svg>